<svg width="33" height="32" viewBox="0 0 33 32" fill="none" xmlns="http://www.w3.org/2000/svg">
<path d="M16.5 2.66667C23.852 2.66667 29.8333 8.648 29.8333 16C29.8333 23.352 23.852 29.3333 16.5 29.3333C9.148 29.3333 3.16667 23.352 3.16667 16C3.16667 8.648 9.148 2.66667 16.5 2.66667ZM16.5 0C7.664 0 0.5 7.164 0.5 16C0.5 24.836 7.664 32 16.5 32C25.336 32 32.5 24.836 32.5 16C32.5 7.164 25.336 0 16.5 0ZM16.5 5.33333C10.6093 5.33333 5.83333 10.1093 5.83333 16C5.83333 21.8907 10.6093 26.6667 16.5 26.6667V5.33333Z" fill="#070707"/>
</svg>
